<svg width="103" height="26" viewBox="0 0 103 26" fill="none" xmlns="http://www.w3.org/2000/svg">
<path d="M14.0924 3.82583L13.2231 2.9708C11.7409 1.56917 9.77066 0.800635 7.7309 0.828457C5.69114 0.856279 3.74259 1.67827 2.2992 3.1198C0.855813 4.56134 0.0313197 6.50882 0.000874022 8.54855C-0.0295717 10.5883 0.73643 12.5595 2.13615 14.0435L14.0924 25.9997L26.0485 14.0292C27.4483 12.5452 28.2143 10.574 28.1838 8.5343C28.1534 6.49457 27.3289 4.54709 25.8855 3.10555C24.4421 1.66402 22.4936 0.842029 20.4538 0.814206C18.414 0.786384 16.4438 1.55492 14.9616 2.95655L14.0924 3.82583Z" fill="#013BC0"/>
<path fill-rule="evenodd" clip-rule="evenodd" d="M13.1449 7.47561C13.1449 7.14768 13.4107 6.88184 13.7386 6.88184C16.774 6.88184 19.2635 9.21756 19.5082 12.1901L20.6496 13.8796C20.9441 14.3155 20.9487 15.0159 20.3766 15.3858C20.143 15.5369 19.823 15.7043 19.4108 15.8375L19.2752 17.4468C19.2024 18.3121 18.4055 18.9304 17.5492 18.786L16.856 18.669V19.4995C16.856 19.8274 16.5901 20.0933 16.2622 20.0933C15.9343 20.0933 15.6684 19.8274 15.6684 19.4995V17.9668C15.6684 17.792 15.7454 17.6261 15.8788 17.5133C16.0123 17.4005 16.1886 17.3522 16.3609 17.3812L17.7467 17.615C17.9179 17.6438 18.0773 17.5202 18.0919 17.3471L18.2622 15.3246C18.284 15.0662 18.4709 14.8518 18.7239 14.7951C19.113 14.7078 19.4055 14.5784 19.6101 14.4623L18.4347 12.7224C18.3744 12.6331 18.3395 12.5292 18.3338 12.4216C18.215 10.195 16.5126 8.38823 14.3324 8.10734V19.4995C14.3324 19.8274 14.0666 20.0933 13.7386 20.0933C13.4107 20.0933 13.1449 19.8274 13.1449 19.4995V16.6049H12.2602L11.2024 17.6626C11.2476 17.7966 11.272 17.9401 11.272 18.0893C11.272 18.8271 10.6739 19.4253 9.93604 19.4253C9.1982 19.4253 8.60005 18.8271 8.60005 18.0893C8.60005 17.3514 9.1982 16.7533 9.93604 16.7533C10.0853 16.7533 10.2287 16.7778 10.3627 16.8229L11.5944 15.5912C11.7057 15.4799 11.8568 15.4173 12.0142 15.4173H13.1449V13.9329H9.87197C9.65336 14.3728 9.19941 14.6751 8.67485 14.6751C7.93701 14.6751 7.33887 14.077 7.33887 13.3391C7.33887 12.6013 7.93701 12.0031 8.67485 12.0031C9.19941 12.0031 9.65336 12.3054 9.87197 12.7453H13.1449V11.5578H12.3111C12.1537 11.5578 12.0026 11.4952 11.8913 11.3839L10.6596 10.1522C10.5256 10.1973 10.3821 10.2218 10.2329 10.2218C9.49508 10.2218 8.89694 9.62367 8.89694 8.88582C8.89694 8.14797 9.49508 7.54983 10.2329 7.54983C10.9708 7.54983 11.5689 8.14797 11.5689 8.88582C11.5689 9.03502 11.5445 9.17851 11.4993 9.3125L12.5571 10.3702H13.1449V7.47561Z" fill="white"/>
<path d="M41.1216 16.464V6.11845C41.1216 5.61745 41.0882 5.29181 41.0214 5.14151C40.9546 4.97451 40.8294 4.87431 40.6457 4.84091C40.4286 4.75741 40.1948 4.66556 39.9443 4.56536C39.6938 4.44846 39.5685 4.22302 39.5685 3.88902C39.5685 3.35462 39.9192 3.08743 40.6206 3.08743H43.2508C43.9355 3.08743 44.2779 3.36297 44.2779 3.91407V16.5642C44.2779 18.3344 43.8437 19.637 42.9753 20.472C42.1069 21.2903 40.9129 21.6994 39.3932 21.6994C37.7733 21.6994 36.5709 21.3571 35.786 20.6724C35.0011 19.9877 34.6087 18.9773 34.6087 17.6413H37.79C37.8067 18.493 37.957 19.0274 38.2409 19.2445C38.5415 19.4616 38.9089 19.5702 39.3431 19.5702C39.8107 19.5702 40.2198 19.3531 40.5705 18.9189C40.9379 18.4847 41.1216 17.6664 41.1216 16.464ZM49.1125 15.5622C49.1793 16.5642 49.5467 17.4827 50.2147 18.3177C50.8827 19.136 51.7511 19.5869 52.8198 19.6704C53.1872 19.7038 53.5797 19.6954 53.9972 19.6453C54.4147 19.5785 54.8238 19.4449 55.2246 19.2445C55.7256 19.0107 56.1014 18.9439 56.3519 19.0441C56.6191 19.1276 56.8195 19.303 56.9531 19.5702C57.0199 19.7873 57.0115 20.0211 56.928 20.2716C56.8612 20.5054 56.7109 20.6974 56.4771 20.8477C56.0262 21.1149 55.4167 21.3404 54.6485 21.5241C53.897 21.7078 53.0536 21.7746 52.1185 21.7245C50.365 21.6076 48.887 20.9229 47.6846 19.6704C46.4823 18.4179 45.8811 16.6894 45.8811 14.4851C45.8811 12.5145 46.4238 10.9614 47.5093 9.82581C48.5948 8.67352 50.0727 8.09738 51.9431 8.09738C53.5463 8.09738 54.8489 8.62342 55.8509 9.67551C56.8529 10.7276 57.3539 12.3308 57.3539 14.4851V15.5622H49.1125ZM49.1125 13.458H54.2226C54.2226 12.3391 53.9721 11.5125 53.4711 10.9781C52.9868 10.427 52.4524 10.1515 51.868 10.1515C51.2 10.1515 50.5821 10.4604 50.0143 11.0783C49.4632 11.6962 49.1626 12.4894 49.1125 13.458ZM59.1825 11.5041C59.1825 10.9698 59.1407 10.6191 59.0572 10.4521C58.9904 10.2684 58.8986 10.1515 58.7817 10.1014C58.5145 10.0346 58.289 9.94271 58.1053 9.82581C57.9383 9.69221 57.8548 9.49182 57.8548 9.22462C57.8548 8.69022 58.2139 8.42303 58.932 8.42303H61.1364C61.8712 8.42303 62.2386 8.72362 62.2386 9.32482V9.52522C62.3555 9.40832 62.4807 9.29977 62.6143 9.19957C63.3658 8.54828 64.3511 8.22263 65.5702 8.22263H66.8477V11.0282C65.2445 10.6775 63.9586 10.8696 62.99 11.6043C62.7062 11.8047 62.4557 12.0886 62.2386 12.456V21.5491H59.1825V11.5041ZM71.031 21.5491H67.9499V11.5041C67.9499 10.9865 67.9082 10.6358 67.8247 10.4521C67.7412 10.2684 67.6493 10.1515 67.5491 10.1014C67.2318 10.0346 67.0064 9.94271 66.8728 9.82581C66.7392 9.70891 66.6724 9.50852 66.6724 9.22462C66.6724 8.69022 67.0231 8.42303 67.7245 8.42303H69.9539C70.672 8.42303 71.031 8.72362 71.031 9.32482V9.52522C71.0978 9.45842 71.1646 9.38327 71.2314 9.29977C71.8827 8.61507 72.7678 8.25603 73.8867 8.22263C75.1225 8.22263 76.041 8.64012 76.6422 9.47512C76.7925 9.67551 76.9261 9.90931 77.043 10.1765C77.1933 9.90931 77.377 9.65882 77.5941 9.42502C78.3289 8.62342 79.2473 8.22263 80.3495 8.22263C81.6187 8.22263 82.5456 8.64847 83.1301 9.50017C83.7313 10.3352 84.0319 11.6628 84.0319 13.4831V21.5491H80.9507V13.5582C80.9507 12.4059 80.8422 11.6127 80.6251 11.1785C80.4247 10.7443 80.1408 10.5272 79.7734 10.5272C79.2891 10.5272 78.7213 10.9865 78.07 11.9049C77.8362 12.2055 77.6609 12.5479 77.544 12.932V21.5491H74.4628V13.5582C74.4628 12.3892 74.3543 11.596 74.1372 11.1785C73.9368 10.7443 73.6696 10.5272 73.3356 10.5272C72.8513 10.5439 72.2668 11.0032 71.5821 11.9049C71.3483 12.1888 71.1646 12.5228 71.031 12.9069V21.5491ZM93.2251 20.6724C93.008 20.8394 92.6239 21.0565 92.0728 21.3237C91.5217 21.5909 90.7452 21.7245 89.7432 21.7245C88.5575 21.7245 87.5806 21.3821 86.8124 20.6974C86.0442 19.996 85.6601 19.1026 85.6601 18.0171C85.6601 16.5475 86.3114 15.3702 87.614 14.4851C88.9333 13.6 90.5281 13.1574 92.3985 13.1574H93.2001V12.6314C93.2001 11.8632 92.983 11.262 92.5488 10.8278C92.1146 10.3769 91.5969 10.1515 90.9957 10.1515C90.4613 10.1515 90.0021 10.2934 89.618 10.5773C89.2506 10.8612 89.0669 11.4123 89.0669 12.2306H85.8104C85.8104 10.9113 86.2863 9.89261 87.2382 9.17452C88.1901 8.45643 89.4677 8.09738 91.0708 8.09738C92.7742 8.09738 94.0685 8.52323 94.9536 9.37492C95.8553 10.2099 96.3062 11.3371 96.3062 12.7566V21.5491H93.2251V20.6724ZM93.2001 15.2867C91.8474 15.2533 90.7702 15.462 89.9687 15.9129C89.1671 16.3638 88.7663 16.9817 88.7663 17.7666C88.7663 18.4346 88.9249 18.8938 89.2422 19.1443C89.5595 19.3781 89.9186 19.495 90.3193 19.495C91.0207 19.495 91.672 19.2362 92.2732 18.7185C92.8911 18.2008 93.2001 17.5745 93.2001 16.8397V15.2867ZM101.692 21.5491H98.5607V11.5041C98.5607 10.9865 98.519 10.6358 98.4355 10.4521C98.352 10.2684 98.2601 10.1515 98.1599 10.1014C97.8593 10.0179 97.6339 9.91766 97.4836 9.80076C97.3333 9.68386 97.2581 9.50852 97.2581 9.27472C97.2581 8.70692 97.6172 8.42303 98.3353 8.42303H100.615C101.333 8.42303 101.692 8.72362 101.692 9.32482V21.5491ZM101.792 4.54031C101.792 5.07471 101.6 5.53395 101.216 5.91805C100.849 6.28545 100.398 6.46914 99.8633 6.46914C99.3289 6.46914 98.878 6.28545 98.5106 5.91805C98.1432 5.53395 97.9595 5.07471 97.9595 4.54031C97.9595 4.00592 98.1432 3.54667 98.5106 3.16258C98.878 2.76178 99.3289 2.56138 99.8633 2.56138C100.398 2.56138 100.849 2.76178 101.216 3.16258C101.6 3.54667 101.792 4.00592 101.792 4.54031Z" fill="#013BC0"/>
</svg>
